<svg width="600" height="520" viewBox="0 0 600 520" fill="none" xmlns="http://www.w3.org/2000/svg">
<rect width="291.88" height="291.88" rx="24" transform="matrix(0.279087 -0.960266 0.960554 0.278093 64 289.281)" fill="#F2F6FF"/>
<rect width="270.81" height="270.81" rx="24" transform="matrix(-0.403486 -0.914986 0.914568 -0.404433 292.27 502.311)" fill="#E5EEFF"/>
<g filter="url(#filter0_d_2182_75439)">
<path d="M375.609 115.334C375.618 111.853 378.447 109.031 381.928 109.03L567.994 109.001C571.475 109.001 574.29 111.822 574.281 115.304L573.691 354.077C573.682 357.558 570.853 360.381 567.372 360.382L381.306 360.411C377.825 360.411 375.01 357.589 375.019 354.108L375.609 115.334Z" fill="white"/>
<path d="M377.185 115.334C377.192 112.723 379.313 110.606 381.924 110.606L567.99 110.577C570.601 110.577 572.712 112.693 572.706 115.304L572.115 354.078C572.108 356.688 569.987 358.805 567.376 358.806L381.31 358.835C378.699 358.835 376.588 356.719 376.594 354.108L377.185 115.334Z" stroke="#D1D1D1" stroke-width="3.15162"/>
</g>
<rect width="166.236" height="6.75755" rx="3.37878" transform="matrix(1 -0.000155844 -0.0024742 0.999997 391.762 131.584)" fill="#0055FF"/>
<g filter="url(#filter1_d_2182_75439)">
<path d="M36.6094 97.3345C36.618 93.8533 39.4471 91.0308 42.9282 91.0303L228.994 91.0013C232.475 91.0007 235.29 93.8224 235.281 97.3035L234.691 336.077C234.682 339.558 231.853 342.381 228.372 342.382L42.3063 342.411C38.8251 342.411 36.01 339.589 36.0186 336.108L36.6094 97.3345Z" fill="white"/>
<path d="M38.1852 97.3342C38.1917 94.7234 40.3135 92.6065 42.9243 92.6061L228.99 92.5771C231.601 92.5767 233.712 94.6929 233.706 97.3038L233.115 336.078C233.108 338.688 230.987 340.805 228.376 340.806L42.3102 340.835C39.6993 340.835 37.588 338.719 37.5944 336.108L38.1852 97.3342Z" stroke="#D1D1D1" stroke-width="3.15162"/>
</g>
<path d="M53.2618 133.164C53.2639 132.304 53.9621 131.607 54.8211 131.607L178.571 131.588C179.43 131.588 180.125 132.285 180.122 133.145C180.12 134.005 179.422 134.702 178.563 134.702L54.8134 134.721C53.9544 134.721 53.2596 134.024 53.2618 133.164Z" fill="#D1D1D1"/>
<path d="M104.162 259.858C104.164 258.952 104.899 258.218 105.804 258.218L190.994 258.205C191.898 258.205 192.63 258.939 192.628 259.844C192.626 260.75 191.89 261.484 190.986 261.484L105.796 261.498C104.891 261.498 104.16 260.764 104.162 259.858Z" fill="#D1D1D1"/>
<path d="M53.2412 141.467C53.2434 140.607 53.9415 139.91 54.8006 139.91L192.377 139.888C193.236 139.888 193.931 140.585 193.929 141.445C193.927 142.305 193.228 143.002 192.369 143.002L54.7929 143.024C53.9338 143.024 53.2391 142.327 53.2412 141.467Z" fill="#D1D1D1"/>
<path d="M104.142 268.057C104.143 267.332 104.732 266.745 105.455 266.745L205.717 266.729C206.441 266.729 207.026 267.316 207.024 268.041C207.022 268.765 206.434 269.353 205.71 269.353L105.449 269.369C104.725 269.369 104.14 268.781 104.142 268.057Z" fill="#D1D1D1"/>
<path d="M53.219 150.463C53.2211 149.603 53.9193 148.906 54.7783 148.906L154.331 148.89C155.19 148.89 155.885 149.587 155.883 150.447C155.881 151.307 155.183 152.004 154.323 152.004L54.7706 152.02C53.9116 152.02 53.2168 151.323 53.219 150.463Z" fill="#D1D1D1"/>
<path d="M104.119 277.074C104.121 276.214 104.819 275.517 105.679 275.516L205.231 275.501C206.09 275.501 206.785 276.198 206.783 277.058C206.781 277.918 206.083 278.615 205.224 278.615L105.671 278.63C104.812 278.631 104.117 277.934 104.119 277.074Z" fill="#D1D1D1"/>
<path d="M53.1539 176.758C53.156 175.899 53.8542 175.201 54.7133 175.201L216.487 175.176C217.346 175.176 218.04 175.873 218.038 176.733C218.036 177.593 217.338 178.29 216.479 178.29L54.7056 178.315C53.8465 178.315 53.1518 177.618 53.1539 176.758Z" fill="#D1D1D1"/>
<path d="M52.8406 303.377C52.8428 302.517 53.5409 301.82 54.4 301.82L216.173 301.795C217.032 301.795 217.727 302.492 217.725 303.352C217.723 304.211 217.025 304.909 216.166 304.909L54.3923 304.934C53.5332 304.934 52.8385 304.237 52.8406 303.377Z" fill="#D1D1D1"/>
<path d="M53.1359 184.025C53.1381 183.165 53.8362 182.468 54.6953 182.468L209.555 182.443C210.414 182.443 211.109 183.14 211.107 184C211.105 184.86 210.407 185.557 209.547 185.557L54.6876 185.582C53.8285 185.582 53.1338 184.885 53.1359 184.025Z" fill="#D1D1D1"/>
<path d="M52.8227 310.644C52.8248 309.784 53.5229 309.086 54.382 309.086L209.242 309.062C210.101 309.062 210.796 309.759 210.794 310.619C210.791 311.479 210.093 312.176 209.234 312.176L54.3743 312.2C53.5152 312.2 52.8205 311.503 52.8227 310.644Z" fill="#D1D1D1"/>
<path d="M53.118 191.291C53.1201 190.431 53.8182 189.734 54.6773 189.734L212.994 189.709C213.853 189.709 214.548 190.406 214.546 191.266C214.543 192.126 213.845 192.823 212.986 192.823L54.6696 192.848C53.8105 192.848 53.1158 192.151 53.118 191.291Z" fill="#D1D1D1"/>
<path d="M52.8047 317.91C52.8068 317.05 53.505 316.353 54.364 316.353L212.681 316.328C213.54 316.328 214.234 317.025 214.232 317.885C214.23 318.745 213.532 319.442 212.673 319.442L54.3563 319.467C53.4972 319.467 52.8025 318.77 52.8047 317.91Z" fill="#D1D1D1"/>
<path d="M53.1 198.556C53.1021 197.696 53.8003 196.999 54.6593 196.999L212.976 196.974C213.835 196.974 214.53 197.671 214.528 198.531C214.525 199.391 213.827 200.088 212.968 200.088L54.6516 200.113C53.7926 200.113 53.0979 199.416 53.1 198.556Z" fill="#D1D1D1"/>
<path d="M53.082 205.823C53.0841 204.963 53.7823 204.265 54.6414 204.265L202.588 204.242C203.447 204.242 204.142 204.939 204.14 205.799C204.137 206.659 203.439 207.356 202.58 207.356L54.6337 207.379C53.7746 207.379 53.0799 206.682 53.082 205.823Z" fill="#D1D1D1"/>
<path d="M53.064 213.088C53.0662 212.228 53.7643 211.53 54.6234 211.53L202.57 211.507C203.429 211.507 204.124 212.204 204.122 213.064C204.119 213.924 203.421 214.621 202.562 214.621L54.6157 214.644C53.7566 214.644 53.0619 213.947 53.064 213.088Z" fill="#D1D1D1"/>
<path d="M53.046 220.354C53.0482 219.494 53.7463 218.797 54.6054 218.797L202.552 218.774C203.411 218.773 204.106 219.47 204.104 220.33C204.101 221.19 203.403 221.887 202.544 221.888L54.5977 221.911C53.7386 221.911 53.0439 221.214 53.046 220.354Z" fill="#D1D1D1"/>
<path d="M53.0281 227.62C53.0302 226.76 53.7283 226.063 54.5874 226.063L202.534 226.04C203.393 226.04 204.088 226.737 204.086 227.597C204.083 228.457 203.385 229.154 202.526 229.154L54.5797 229.177C53.7207 229.177 53.0259 228.48 53.0281 227.62Z" fill="#D1D1D1"/>
<path d="M104.198 245.258C104.2 244.398 104.898 243.701 105.757 243.701L174.2 243.69C175.059 243.69 175.754 244.387 175.751 245.247C175.749 246.107 175.051 246.804 174.192 246.804L105.75 246.815C104.891 246.815 104.196 246.118 104.198 245.258Z" fill="#D1D1D1"/>
<path d="M104.102 284.127C104.104 283.221 104.839 282.487 105.744 282.487L184.381 282.475C185.285 282.474 186.017 283.209 186.015 284.114C186.013 285.02 185.277 285.754 184.372 285.754L105.736 285.766C104.831 285.767 104.1 285.033 104.102 284.127Z" fill="#D1D1D1"/>
<path d="M104.18 252.523C104.182 251.663 104.88 250.966 105.739 250.966L174.182 250.955C175.041 250.955 175.736 251.652 175.734 252.512C175.731 253.372 175.033 254.069 174.174 254.069L105.732 254.08C104.873 254.08 104.178 253.383 104.18 252.523Z" fill="#D1D1D1"/>
<rect width="166.236" height="6.75755" rx="3.37878" transform="matrix(1 -0.000155844 -0.0024742 0.999997 52.7617 113.584)" fill="#0055FF"/>
<g filter="url(#filter2_d_2182_75439)">
<path d="M83.6094 148.334C83.618 144.853 86.4471 142.031 89.9282 142.03L275.994 142.001C279.475 142.001 282.29 144.822 282.281 148.304L281.691 387.077C281.682 390.558 278.853 393.381 275.372 393.382L89.3063 393.411C85.8251 393.411 83.01 390.589 83.0186 387.108L83.6094 148.334Z" fill="white"/>
<path d="M85.1852 148.334C85.1917 145.723 87.3135 143.606 89.9243 143.606L275.99 143.577C278.601 143.577 280.712 145.693 280.706 148.304L280.115 387.078C280.108 389.688 277.987 391.805 275.376 391.806L89.3102 391.835C86.6993 391.835 84.588 389.719 84.5944 387.108L85.1852 148.334Z" stroke="#D1D1D1" stroke-width="3.15162"/>
</g>
<path d="M100.262 184.164C100.264 183.304 100.962 182.607 101.821 182.607L225.571 182.588C226.43 182.588 227.125 183.285 227.122 184.145C227.12 185.005 226.422 185.702 225.563 185.702L101.813 185.721C100.954 185.721 100.26 185.024 100.262 184.164Z" fill="#D1D1D1"/>
<path d="M151.162 310.858C151.164 309.952 151.899 309.218 152.804 309.218L237.994 309.205C238.898 309.205 239.63 309.939 239.628 310.844C239.626 311.75 238.89 312.484 237.986 312.484L152.796 312.498C151.891 312.498 151.16 311.764 151.162 310.858Z" fill="#D1D1D1"/>
<path d="M100.241 192.467C100.243 191.607 100.942 190.91 101.801 190.91L239.377 190.888C240.236 190.888 240.931 191.585 240.929 192.445C240.927 193.305 240.228 194.002 239.369 194.002L101.793 194.024C100.934 194.024 100.239 193.327 100.241 192.467Z" fill="#D1D1D1"/>
<path d="M151.142 319.057C151.143 318.332 151.732 317.745 152.455 317.745L252.717 317.729C253.441 317.729 254.026 318.316 254.024 319.041C254.022 319.765 253.434 320.353 252.71 320.353L152.449 320.369C151.725 320.369 151.14 319.781 151.142 319.057Z" fill="#D1D1D1"/>
<path d="M100.219 201.463C100.221 200.603 100.919 199.906 101.778 199.906L201.331 199.89C202.19 199.89 202.885 200.587 202.883 201.447C202.881 202.307 202.183 203.004 201.323 203.004L101.771 203.02C100.912 203.02 100.217 202.323 100.219 201.463Z" fill="#D1D1D1"/>
<path d="M151.119 328.074C151.121 327.214 151.819 326.517 152.679 326.516L252.231 326.501C253.09 326.501 253.785 327.198 253.783 328.058C253.781 328.918 253.083 329.615 252.224 329.615L152.671 329.63C151.812 329.631 151.117 328.934 151.119 328.074Z" fill="#D1D1D1"/>
<path d="M100.154 227.758C100.156 226.899 100.854 226.201 101.713 226.201L263.487 226.176C264.346 226.176 265.04 226.873 265.038 227.733C265.036 228.593 264.338 229.29 263.479 229.29L101.706 229.315C100.846 229.315 100.152 228.618 100.154 227.758Z" fill="#D1D1D1"/>
<path d="M99.8406 354.377C99.8428 353.517 100.541 352.82 101.4 352.82L263.173 352.795C264.032 352.795 264.727 353.492 264.725 354.352C264.723 355.211 264.025 355.909 263.166 355.909L101.392 355.934C100.533 355.934 99.8385 355.237 99.8406 354.377Z" fill="#D1D1D1"/>
<path d="M100.136 235.025C100.138 234.165 100.836 233.468 101.695 233.468L256.555 233.443C257.414 233.443 258.109 234.14 258.107 235C258.105 235.86 257.407 236.557 256.547 236.557L101.688 236.582C100.829 236.582 100.134 235.885 100.136 235.025Z" fill="#D1D1D1"/>
<path d="M99.8227 361.644C99.8248 360.784 100.523 360.086 101.382 360.086L256.242 360.062C257.101 360.062 257.796 360.759 257.794 361.619C257.791 362.479 257.093 363.176 256.234 363.176L101.374 363.2C100.515 363.2 99.8205 362.503 99.8227 361.644Z" fill="#D1D1D1"/>
<path d="M100.118 242.291C100.12 241.431 100.818 240.734 101.677 240.734L259.994 240.709C260.853 240.709 261.548 241.406 261.546 242.266C261.543 243.126 260.845 243.823 259.986 243.823L101.67 243.848C100.811 243.848 100.116 243.151 100.118 242.291Z" fill="#D1D1D1"/>
<path d="M99.8047 368.91C99.8068 368.05 100.505 367.353 101.364 367.353L259.681 367.328C260.54 367.328 261.234 368.025 261.232 368.885C261.23 369.745 260.532 370.442 259.673 370.442L101.356 370.467C100.497 370.467 99.8025 369.77 99.8047 368.91Z" fill="#D1D1D1"/>
<path d="M100.1 249.556C100.102 248.696 100.8 247.999 101.659 247.999L259.976 247.974C260.835 247.974 261.53 248.671 261.528 249.531C261.525 250.391 260.827 251.088 259.968 251.088L101.652 251.113C100.793 251.113 100.098 250.416 100.1 249.556Z" fill="#D1D1D1"/>
<path d="M100.082 256.823C100.084 255.963 100.782 255.265 101.641 255.265L249.588 255.242C250.447 255.242 251.142 255.939 251.14 256.799C251.137 257.659 250.439 258.356 249.58 258.356L101.634 258.379C100.775 258.379 100.08 257.682 100.082 256.823Z" fill="#D1D1D1"/>
<path d="M100.064 264.088C100.066 263.228 100.764 262.53 101.623 262.53L249.57 262.507C250.429 262.507 251.124 263.204 251.122 264.064C251.119 264.924 250.421 265.621 249.562 265.621L101.616 265.644C100.757 265.644 100.062 264.947 100.064 264.088Z" fill="#D1D1D1"/>
<path d="M100.046 271.354C100.048 270.494 100.746 269.797 101.605 269.797L249.552 269.774C250.411 269.773 251.106 270.47 251.104 271.33C251.101 272.19 250.403 272.887 249.544 272.888L101.598 272.911C100.739 272.911 100.044 272.214 100.046 271.354Z" fill="#D1D1D1"/>
<path d="M100.028 278.62C100.03 277.76 100.728 277.063 101.587 277.063L249.534 277.04C250.393 277.04 251.088 277.737 251.086 278.597C251.083 279.457 250.385 280.154 249.526 280.154L101.58 280.177C100.721 280.177 100.026 279.48 100.028 278.62Z" fill="#D1D1D1"/>
<path d="M151.198 296.258C151.2 295.398 151.898 294.701 152.757 294.701L221.2 294.69C222.059 294.69 222.754 295.387 222.751 296.247C222.749 297.107 222.051 297.804 221.192 297.804L152.75 297.815C151.891 297.815 151.196 297.118 151.198 296.258Z" fill="#D1D1D1"/>
<path d="M151.102 335.127C151.104 334.221 151.839 333.487 152.744 333.487L231.381 333.475C232.285 333.474 233.017 334.209 233.015 335.114C233.013 336.02 232.277 336.754 231.372 336.754L152.736 336.766C151.831 336.767 151.1 336.033 151.102 335.127Z" fill="#D1D1D1"/>
<path d="M151.18 303.523C151.182 302.663 151.88 301.966 152.739 301.966L221.182 301.955C222.041 301.955 222.736 302.652 222.734 303.512C222.731 304.372 222.033 305.069 221.174 305.069L152.732 305.08C151.873 305.08 151.178 304.383 151.18 303.523Z" fill="#D1D1D1"/>
<rect width="166.236" height="6.75755" rx="3.37878" transform="matrix(1 -0.000155844 -0.0024742 0.999997 99.7617 164.584)" fill="#0055FF"/>
<g filter="url(#filter3_d_2182_75439)">
<path d="M136.609 197.334C136.618 193.853 139.447 191.031 142.928 191.03L328.994 191.001C332.475 191.001 335.29 193.822 335.281 197.304L334.691 436.077C334.682 439.558 331.853 442.381 328.372 442.382L142.306 442.411C138.825 442.411 136.01 439.589 136.019 436.108L136.609 197.334Z" fill="white"/>
<path d="M138.185 197.334C138.192 194.723 140.313 192.606 142.924 192.606L328.99 192.577C331.601 192.577 333.712 194.693 333.706 197.304L333.115 436.078C333.108 438.688 330.987 440.805 328.376 440.806L142.31 440.835C139.699 440.835 137.588 438.719 137.594 436.108L138.185 197.334Z" stroke="#D1D1D1" stroke-width="3.15162"/>
</g>
<path d="M153.262 233.164C153.264 232.304 153.962 231.607 154.821 231.607L278.571 231.588C279.43 231.588 280.125 232.285 280.122 233.145C280.12 234.005 279.422 234.702 278.563 234.702L154.813 234.721C153.954 234.721 153.26 234.024 153.262 233.164Z" fill="#D1D1D1"/>
<path d="M204.162 359.858C204.164 358.952 204.899 358.218 205.804 358.218L290.994 358.205C291.898 358.205 292.63 358.939 292.628 359.844C292.626 360.75 291.89 361.484 290.986 361.484L205.796 361.498C204.891 361.498 204.16 360.764 204.162 359.858Z" fill="#D1D1D1"/>
<path d="M153.241 241.467C153.243 240.607 153.942 239.91 154.801 239.91L292.377 239.888C293.236 239.888 293.931 240.585 293.929 241.445C293.927 242.305 293.228 243.002 292.369 243.002L154.793 243.024C153.934 243.024 153.239 242.327 153.241 241.467Z" fill="#D1D1D1"/>
<path d="M204.142 368.057C204.143 367.332 204.732 366.745 205.455 366.745L305.717 366.729C306.441 366.729 307.026 367.316 307.024 368.041C307.022 368.765 306.434 369.353 305.71 369.353L205.449 369.369C204.725 369.369 204.14 368.781 204.142 368.057Z" fill="#D1D1D1"/>
<path d="M153.219 250.463C153.221 249.603 153.919 248.906 154.778 248.906L254.331 248.89C255.19 248.89 255.885 249.587 255.883 250.447C255.881 251.307 255.183 252.004 254.323 252.004L154.771 252.02C153.912 252.02 153.217 251.323 153.219 250.463Z" fill="#D1D1D1"/>
<path d="M204.119 377.074C204.121 376.214 204.819 375.517 205.679 375.516L305.231 375.501C306.09 375.501 306.785 376.198 306.783 377.058C306.781 377.918 306.083 378.615 305.224 378.615L205.671 378.63C204.812 378.631 204.117 377.934 204.119 377.074Z" fill="#D1D1D1"/>
<path d="M153.154 276.758C153.156 275.899 153.854 275.201 154.713 275.201L316.487 275.176C317.346 275.176 318.04 275.873 318.038 276.733C318.036 277.593 317.338 278.29 316.479 278.29L154.706 278.315C153.846 278.315 153.152 277.618 153.154 276.758Z" fill="#D1D1D1"/>
<path d="M152.841 403.377C152.843 402.517 153.541 401.82 154.4 401.82L316.173 401.795C317.032 401.795 317.727 402.492 317.725 403.352C317.723 404.211 317.025 404.909 316.166 404.909L154.392 404.934C153.533 404.934 152.839 404.237 152.841 403.377Z" fill="#D1D1D1"/>
<path d="M153.136 284.025C153.138 283.165 153.836 282.468 154.695 282.468L309.555 282.443C310.414 282.443 311.109 283.14 311.107 284C311.105 284.86 310.407 285.557 309.547 285.557L154.688 285.582C153.829 285.582 153.134 284.885 153.136 284.025Z" fill="#D1D1D1"/>
<path d="M152.823 410.644C152.825 409.784 153.523 409.086 154.382 409.086L309.242 409.062C310.101 409.062 310.796 409.759 310.794 410.619C310.791 411.479 310.093 412.176 309.234 412.176L154.374 412.2C153.515 412.2 152.821 411.503 152.823 410.644Z" fill="#D1D1D1"/>
<path d="M153.118 291.291C153.12 290.431 153.818 289.734 154.677 289.734L312.994 289.709C313.853 289.709 314.548 290.406 314.546 291.266C314.543 292.126 313.845 292.823 312.986 292.823L154.67 292.848C153.811 292.848 153.116 292.151 153.118 291.291Z" fill="#D1D1D1"/>
<path d="M152.805 417.91C152.807 417.05 153.505 416.353 154.364 416.353L312.681 416.328C313.54 416.328 314.234 417.025 314.232 417.885C314.23 418.745 313.532 419.442 312.673 419.442L154.356 419.467C153.497 419.467 152.803 418.77 152.805 417.91Z" fill="#D1D1D1"/>
<path d="M153.1 298.556C153.102 297.696 153.8 296.999 154.659 296.999L312.976 296.974C313.835 296.974 314.53 297.671 314.528 298.531C314.525 299.391 313.827 300.088 312.968 300.088L154.652 300.113C153.793 300.113 153.098 299.416 153.1 298.556Z" fill="#D1D1D1"/>
<path d="M153.082 305.823C153.084 304.963 153.782 304.265 154.641 304.265L302.588 304.242C303.447 304.242 304.142 304.939 304.14 305.799C304.137 306.659 303.439 307.356 302.58 307.356L154.634 307.379C153.775 307.379 153.08 306.682 153.082 305.823Z" fill="#D1D1D1"/>
<path d="M153.064 313.088C153.066 312.228 153.764 311.53 154.623 311.53L302.57 311.507C303.429 311.507 304.124 312.204 304.122 313.064C304.119 313.924 303.421 314.621 302.562 314.621L154.616 314.644C153.757 314.644 153.062 313.947 153.064 313.088Z" fill="#D1D1D1"/>
<path d="M153.046 320.354C153.048 319.494 153.746 318.797 154.605 318.797L302.552 318.774C303.411 318.773 304.106 319.47 304.104 320.33C304.101 321.19 303.403 321.887 302.544 321.888L154.598 321.911C153.739 321.911 153.044 321.214 153.046 320.354Z" fill="#D1D1D1"/>
<path d="M153.028 327.62C153.03 326.76 153.728 326.063 154.587 326.063L302.534 326.04C303.393 326.04 304.088 326.737 304.086 327.597C304.083 328.457 303.385 329.154 302.526 329.154L154.58 329.177C153.721 329.177 153.026 328.48 153.028 327.62Z" fill="#D1D1D1"/>
<path d="M204.198 345.258C204.2 344.398 204.898 343.701 205.757 343.701L274.2 343.69C275.059 343.69 275.754 344.387 275.751 345.247C275.749 346.107 275.051 346.804 274.192 346.804L205.75 346.815C204.891 346.815 204.196 346.118 204.198 345.258Z" fill="#D1D1D1"/>
<path d="M204.102 384.127C204.104 383.221 204.839 382.487 205.744 382.487L284.381 382.475C285.285 382.474 286.017 383.209 286.015 384.114C286.013 385.02 285.277 385.754 284.372 385.754L205.736 385.766C204.831 385.767 204.1 385.033 204.102 384.127Z" fill="#D1D1D1"/>
<path d="M204.18 352.523C204.182 351.663 204.88 350.966 205.739 350.966L274.182 350.955C275.041 350.955 275.736 351.652 275.734 352.512C275.731 353.372 275.033 354.069 274.174 354.069L205.732 354.08C204.873 354.08 204.178 353.383 204.18 352.523Z" fill="#D1D1D1"/>
<rect width="166.236" height="6.75755" rx="3.37878" transform="matrix(1 -0.000155844 -0.0024742 0.999997 152.762 213.584)" fill="#0055FF"/>
<path fill-rule="evenodd" clip-rule="evenodd" d="M415 161C415 163.209 413.209 165 411 165C408.791 165 407 163.209 407 161C407 158.791 408.791 157 411 157C413.209 157 415 158.791 415 161ZM426 158C424.343 158 423 159.343 423 161C423 162.657 424.343 164 426 164H539C540.657 164 542 162.657 542 161C542 159.343 540.657 158 539 158H426ZM426 174C424.343 174 423 175.343 423 177C423 178.657 424.343 180 426 180H539C540.657 180 542 178.657 542 177C542 175.343 540.657 174 539 174H426ZM423 193C423 191.343 424.343 190 426 190H539C540.657 190 542 191.343 542 193C542 194.657 540.657 196 539 196H426C424.343 196 423 194.657 423 193ZM426 206C424.343 206 423 207.343 423 209C423 210.657 424.343 212 426 212H539C540.657 212 542 210.657 542 209C542 207.343 540.657 206 539 206H426ZM423 225C423 223.343 424.343 222 426 222H539C540.657 222 542 223.343 542 225C542 226.657 540.657 228 539 228H426C424.343 228 423 226.657 423 225ZM426 238C424.343 238 423 239.343 423 241C423 242.657 424.343 244 426 244H539C540.657 244 542 242.657 542 241C542 239.343 540.657 238 539 238H426ZM411 181C413.209 181 415 179.209 415 177C415 174.791 413.209 173 411 173C408.791 173 407 174.791 407 177C407 179.209 408.791 181 411 181ZM415 193C415 195.209 413.209 197 411 197C408.791 197 407 195.209 407 193C407 190.791 408.791 189 411 189C413.209 189 415 190.791 415 193ZM411 213C413.209 213 415 211.209 415 209C415 206.791 413.209 205 411 205C408.791 205 407 206.791 407 209C407 211.209 408.791 213 411 213ZM415 225C415 227.209 413.209 229 411 229C408.791 229 407 227.209 407 225C407 222.791 408.791 221 411 221C413.209 221 415 222.791 415 225ZM411 245C413.209 245 415 243.209 415 241C415 238.791 413.209 237 411 237C408.791 237 407 238.791 407 241C407 243.209 408.791 245 411 245Z" fill="#CCDDFF"/>
<path fill-rule="evenodd" clip-rule="evenodd" d="M448.415 364.152C447.681 365.564 445.941 366.114 444.528 365.38C443.116 364.646 442.566 362.905 443.3 361.493C443.992 360.163 444.694 358.82 445.418 357.492C445.855 356.689 446.154 355.769 446.326 354.729C446.586 353.158 448.069 352.095 449.64 352.354C451.211 352.613 452.274 354.097 452.014 355.668C451.757 357.229 451.279 358.785 450.48 360.251C449.785 361.526 449.104 362.826 448.415 364.152ZM436.885 372.904C437.768 371.579 439.558 371.221 440.882 372.104C442.207 372.987 442.565 374.777 441.681 376.102C440.811 377.407 439.883 378.687 438.879 379.924C437.931 381.091 436.904 382.253 435.812 383.401C434.714 384.555 432.89 384.6 431.736 383.503C430.583 382.406 430.538 380.581 431.635 379.428C432.633 378.379 433.559 377.329 434.403 376.289C435.277 375.214 436.099 374.083 436.885 372.904ZM422.055 387.806C423.336 386.86 425.14 387.133 426.086 388.414C427.031 389.695 426.759 391.499 425.478 392.445C423.037 394.246 420.475 395.939 417.855 397.472C416.481 398.276 414.715 397.814 413.911 396.44C413.107 395.066 413.569 393.3 414.944 392.496C417.382 391.07 419.773 389.489 422.055 387.806ZM450.911 342.979C451.283 344.527 450.329 346.083 448.781 346.455C447.234 346.827 445.677 345.874 445.305 344.326C445.103 343.487 444.901 342.693 444.702 341.909L444.701 341.908C444.588 341.464 444.476 341.023 444.365 340.579C444.083 339.45 443.755 338.352 443.386 337.282C442.867 335.777 443.666 334.136 445.171 333.617C446.676 333.098 448.317 333.897 448.836 335.402C449.259 336.628 449.635 337.887 449.958 339.182C450.056 339.573 450.162 339.989 450.272 340.423L450.272 340.423C450.479 341.236 450.701 342.108 450.911 342.979ZM403.486 397.832C404.994 397.322 406.63 398.13 407.14 399.638C407.651 401.146 406.842 402.782 405.334 403.293C403.821 403.805 402.313 404.24 400.821 404.585C399.369 404.922 397.908 405.184 396.444 405.372C394.865 405.575 393.421 404.459 393.219 402.88C393.016 401.301 394.132 399.856 395.711 399.654C396.982 399.491 398.253 399.262 399.519 398.969C400.809 398.67 402.135 398.289 403.486 397.832ZM443.71 324.869C444.56 326.215 444.157 327.995 442.811 328.845C441.464 329.694 439.684 329.291 438.835 327.945C437.589 325.97 436.209 324.061 434.726 322.184C433.739 320.935 433.952 319.123 435.201 318.136C436.45 317.149 438.263 317.362 439.25 318.611C440.831 320.613 442.335 322.689 443.71 324.869ZM384.218 399.305C385.78 399.613 386.796 401.129 386.488 402.691C386.179 404.253 384.663 405.269 383.101 404.961C380.163 404.38 377.296 403.466 374.557 402.207C373.601 401.768 373 400.872 372.894 399.898C371.732 400.277 370.411 399.885 369.659 398.84C368.73 397.547 369.024 395.746 370.317 394.816C371.112 394.245 371.901 393.631 372.681 392.972C373.824 392.008 374.791 391.01 375.566 390.012C376.543 388.755 378.354 388.527 379.611 389.504C380.868 390.48 381.096 392.291 380.119 393.549C379.193 394.74 378.11 395.877 376.904 396.942C376.924 396.951 376.944 396.96 376.964 396.969C379.277 398.032 381.711 398.809 384.218 399.305ZM431.849 310.081C432.928 311.251 432.855 313.074 431.685 314.154C430.514 315.233 428.691 315.16 427.611 313.99C426.785 313.093 425.95 312.198 425.109 311.295C424.708 310.864 424.464 310.344 424.374 309.804C424.237 310.194 424.154 310.608 424.134 311.038C423.913 315.833 422.997 319.668 422.032 322.265C421.496 323.705 419.801 324.162 418.475 323.389C417.149 322.616 416.664 320.888 417.13 319.427C418.137 316.265 419.143 310.751 418.29 303.524C418.184 302.627 418.515 301.729 419.178 301.112C419.842 300.495 420.756 300.235 421.635 300.413C423.309 300.753 426.294 301.175 429.631 301.292C431.966 301.373 434.378 301.301 436.585 300.983C438.127 300.76 439.685 301.642 440.086 303.148C440.481 304.628 439.612 306.158 438.102 306.415C435.194 306.909 432.128 306.997 429.38 306.901C429.162 306.893 428.945 306.884 428.729 306.874C428.945 307.007 429.146 307.171 429.327 307.365C430.167 308.266 431.011 309.172 431.849 310.081ZM380.365 376.905C381.454 378.066 381.396 379.891 380.234 380.98C379.073 382.069 377.249 382.01 376.16 380.849C375.454 380.096 374.461 379.322 373.096 378.579C372.35 378.172 371.613 377.843 370.887 377.591C369.383 377.068 368.588 375.426 369.11 373.922C369.632 372.418 371.275 371.622 372.779 372.145C373.83 372.51 374.856 372.972 375.855 373.516C377.655 374.497 379.166 375.627 380.365 376.905ZM362.471 399.123C363.948 398.53 365.627 399.247 366.22 400.724C366.813 402.202 366.096 403.88 364.619 404.473C362.478 405.333 360.3 406.014 358.092 406.553C356.545 406.93 354.985 405.982 354.608 404.435C354.231 402.888 355.179 401.329 356.726 400.952C358.694 400.472 360.608 399.871 362.471 399.123ZM367.681 390.422C368.794 391.561 368.773 393.386 367.635 394.498C366.496 395.611 364.671 395.591 363.558 394.452C362.525 393.396 361.541 392.265 360.611 391.06L360.535 390.962C360.01 390.282 359.341 389.415 358.678 388.462C357.769 387.155 358.091 385.358 359.398 384.449C360.705 383.54 362.502 383.863 363.411 385.17C363.99 386.003 364.582 386.769 365.118 387.464L365.175 387.538C365.969 388.566 366.806 389.527 367.681 390.422ZM347.621 402.38C349.207 402.244 350.603 403.419 350.739 405.005C350.875 406.591 349.7 407.988 348.114 408.124C347.015 408.218 345.91 408.292 344.8 408.349C343.433 408.419 342.047 408.457 340.649 408.463C339.057 408.468 337.761 407.183 337.756 405.591C337.75 403.999 339.036 402.703 340.628 402.698C341.934 402.693 343.229 402.657 344.504 402.591C345.556 402.537 346.594 402.468 347.621 402.38ZM362.357 372.062C363.86 371.535 365.505 372.325 366.032 373.828C366.559 375.33 365.768 376.975 364.266 377.502C363.587 377.74 362.895 378.065 362.191 378.49C361.554 378.876 361.331 379.214 361.237 379.423C360.586 380.875 358.88 381.525 357.428 380.873C355.975 380.222 355.326 378.516 355.977 377.064C356.625 375.618 357.737 374.446 359.208 373.557C360.235 372.936 361.286 372.438 362.357 372.062ZM329.039 401.91C330.614 402.136 331.709 403.596 331.483 405.172C331.257 406.748 329.796 407.842 328.22 407.616C326.849 407.42 325.486 407.187 324.139 406.918C322.687 406.659 320.93 405.978 319.115 405.05C317.698 404.324 317.137 402.587 317.863 401.17C318.588 399.753 320.325 399.192 321.742 399.918C323.335 400.733 324.519 401.132 325.165 401.244C325.19 401.249 325.215 401.253 325.239 401.258C326.488 401.509 327.757 401.726 329.039 401.91ZM311.727 392.249C312.817 393.409 312.76 395.234 311.599 396.323C310.438 397.413 308.614 397.356 307.524 396.195C306.435 395.035 305.379 393.783 304.389 392.443C303.443 391.163 303.714 389.358 304.994 388.412C306.274 387.466 308.079 387.737 309.025 389.017C309.872 390.162 310.781 391.241 311.727 392.249Z" fill="#FF5975"/>
<path fill-rule="evenodd" clip-rule="evenodd" d="M558.71 424.14C557.763 423.193 557.763 421.658 558.71 420.71C559.657 419.763 561.192 419.763 562.139 420.71L567.282 425.855C568.229 426.803 568.229 428.338 567.282 429.285C566.335 430.233 564.8 430.233 563.853 429.285L558.71 424.14ZM570.713 436.145C569.766 435.197 569.766 433.662 570.713 432.715C571.66 431.767 573.195 431.767 574.142 432.715L579.285 437.86C580.232 438.807 580.232 440.342 579.285 441.29C578.338 442.237 576.803 442.237 575.856 441.29L570.713 436.145ZM558.71 441.29C559.657 442.237 561.192 442.237 562.139 441.29L567.282 436.145C568.229 435.197 568.229 433.662 567.282 432.715C566.335 431.767 564.8 431.767 563.853 432.715L558.71 437.86C557.763 438.807 557.763 440.342 558.71 441.29ZM574.147 429.286C573.2 430.233 571.665 430.233 570.718 429.286C569.771 428.339 569.771 426.803 570.718 425.856L575.861 420.711C576.808 419.764 578.343 419.764 579.29 420.711C580.237 421.658 580.237 423.194 579.29 424.141L574.147 429.286Z" fill="#3D99F5"/>
<path fill-rule="evenodd" clip-rule="evenodd" d="M552 473C552 479.075 547.075 484 541 484C534.925 484 530 479.075 530 473C530 466.925 534.925 462 541 462C547.075 462 552 466.925 552 473ZM535.501 473C535.501 476.038 537.963 478.5 541.001 478.5C544.038 478.5 546.501 476.038 546.501 473C546.501 469.962 544.038 467.5 541.001 467.5C537.963 467.5 535.501 469.962 535.501 473Z" fill="#FF5975"/>
<path fill-rule="evenodd" clip-rule="evenodd" d="M36.7101 54.1404C35.7633 53.1932 35.7633 51.6576 36.7101 50.7104C37.657 49.7632 39.1921 49.7632 40.139 50.7104L45.2822 55.8554C46.229 56.8026 46.229 58.3382 45.2822 59.2854C44.3353 60.2326 42.8002 60.2326 41.8534 59.2854L36.7101 54.1404ZM48.7132 66.1446C47.7664 65.1974 47.7664 63.6617 48.7132 62.7145C49.66 61.7674 51.1952 61.7674 52.142 62.7145L57.2852 67.8596C58.2321 68.8067 58.2321 70.3424 57.2852 71.2896C56.3384 72.2368 54.8033 72.2368 53.8564 71.2896L48.7132 66.1446ZM36.7101 71.2896C37.657 72.2368 39.1921 72.2368 40.139 71.2896L45.2822 66.1446C46.229 65.1974 46.229 63.6617 45.2822 62.7145C44.3353 61.7674 42.8002 61.7674 41.8534 62.7145L36.7101 67.8596C35.7633 68.8067 35.7633 70.3424 36.7101 71.2896ZM52.1467 59.2858C51.1999 60.233 49.6647 60.233 48.7179 59.2858C47.7711 58.3387 47.7711 56.803 48.7179 55.8559L53.861 50.7108C54.8079 49.7637 56.343 49.7637 57.2899 50.7108C58.2367 51.658 58.2367 53.1936 57.2899 54.1408L52.1467 59.2858Z" fill="#3D99F5"/>
<path fill-rule="evenodd" clip-rule="evenodd" d="M94 32C94 38.0751 89.0751 43 83 43C76.9249 43 72 38.0751 72 32C72 25.9249 76.9249 21 83 21C89.0751 21 94 25.9249 94 32ZM77.5009 32C77.5009 35.0376 79.9633 37.5 83.0009 37.5C86.0384 37.5 88.5009 35.0376 88.5009 32C88.5009 28.9625 86.0384 26.5001 83.0009 26.5001C79.9633 26.5001 77.5009 28.9625 77.5009 32Z" fill="#FF5975"/>
<rect x="228" y="302" width="97" height="98" rx="48.5" fill="#FF5975"/>
<path fill-rule="evenodd" clip-rule="evenodd" d="M280.769 325L282.983 333.119C283.52 333.314 284.046 333.532 284.559 333.772L291.866 329.597L297.903 335.634L293.728 342.941C293.968 343.454 294.186 343.98 294.381 344.517L302.5 346.731V355.269L294.381 357.483C294.186 358.02 293.968 358.546 293.728 359.059L297.903 366.366L291.866 372.403L284.559 368.228C284.046 368.468 283.52 368.686 282.983 368.881L280.769 377H272.231L270.017 368.881C269.48 368.686 268.954 368.468 268.441 368.228L261.134 372.403L255.097 366.366L259.272 359.059C259.032 358.546 258.814 358.02 258.619 357.483L250.5 355.269V346.731L258.619 344.517C258.814 343.98 259.032 343.454 259.272 342.941L255.097 335.634L261.134 329.597L268.441 333.772C268.954 333.532 269.48 333.314 270.017 333.119L272.231 325H280.769ZM278.783 327.6H274.217L272.171 335.104L270.903 335.563C270.442 335.73 269.988 335.919 269.544 336.127L268.322 336.699L261.568 332.84L258.34 336.068L262.199 342.822L261.627 344.044C261.419 344.488 261.23 344.942 261.063 345.403L260.604 346.671L253.1 348.717V353.283L260.604 355.329L261.063 356.597C261.23 357.058 261.419 357.512 261.627 357.956L262.199 359.178L258.34 365.932L261.568 369.16L268.322 365.301L269.544 365.873C269.988 366.081 270.442 366.27 270.903 366.437L272.171 366.896L274.217 374.4H278.783L280.829 366.896L282.097 366.437C282.558 366.27 283.012 366.081 283.456 365.873L284.678 365.301L291.432 369.16L294.66 365.932L290.801 359.178L291.373 357.956C291.581 357.512 291.77 357.058 291.937 356.597L292.396 355.329L299.9 353.283V348.717L292.396 346.671L291.937 345.403C291.77 344.942 291.581 344.488 291.373 344.044L290.801 342.822L294.66 336.068L291.432 332.84L284.678 336.699L283.456 336.127C283.012 335.919 282.558 335.73 282.097 335.563L280.829 335.104L278.783 327.6ZM276.5 338C283.68 338 289.5 343.82 289.5 351C289.5 358.18 283.68 364 276.5 364C269.32 364 263.5 358.18 263.5 351C263.5 343.82 269.32 338 276.5 338ZM276.5 340.6C270.756 340.6 266.1 345.256 266.1 351C266.1 356.744 270.756 361.4 276.5 361.4C282.244 361.4 286.9 356.744 286.9 351C286.9 345.256 282.244 340.6 276.5 340.6Z" fill="white"/>
<rect x="188" y="362" width="63" height="63" rx="31.5" fill="#FFB700"/>
<path fill-rule="evenodd" clip-rule="evenodd" d="M222.784 373.5L224.487 379.745C224.9 379.895 225.304 380.063 225.699 380.248L231.32 377.036L235.964 381.68L232.752 387.301C232.937 387.696 233.105 388.1 233.255 388.513L239.5 390.216V396.784L233.255 398.487C233.105 398.9 232.937 399.304 232.752 399.699L235.964 405.32L231.32 409.964L225.699 406.752C225.304 406.937 224.9 407.105 224.487 407.255L222.784 413.5H216.216L214.513 407.255C214.1 407.105 213.696 406.937 213.301 406.752L207.68 409.964L203.036 405.32L206.248 399.699C206.063 399.304 205.895 398.9 205.745 398.487L199.5 396.784V390.216L205.745 388.513C205.895 388.1 206.063 387.696 206.248 387.301L203.036 381.68L207.68 377.036L213.301 380.248C213.696 380.063 214.1 379.895 214.513 379.745L216.216 373.5H222.784ZM221.256 375.5H217.744L216.17 381.272L215.195 381.625C214.84 381.754 214.491 381.899 214.149 382.059L213.21 382.499L208.014 379.53L205.53 382.014L208.499 387.21L208.059 388.149C207.899 388.491 207.754 388.84 207.625 389.195L207.272 390.17L201.5 391.744V395.256L207.272 396.83L207.625 397.805C207.754 398.16 207.899 398.509 208.059 398.851L208.499 399.79L205.53 404.986L208.014 407.47L213.21 404.501L214.149 404.941C214.491 405.101 214.84 405.246 215.195 405.375L216.17 405.728L217.744 411.5H221.256L222.83 405.728L223.805 405.375C224.16 405.246 224.509 405.101 224.851 404.941L225.79 404.501L230.986 407.47L233.47 404.986L230.501 399.79L230.941 398.851C231.101 398.509 231.246 398.16 231.375 397.805L231.728 396.83L237.5 395.256V391.744L231.728 390.17L231.375 389.195C231.246 388.84 231.101 388.491 230.941 388.149L230.501 387.21L233.47 382.014L230.986 379.53L225.79 382.499L224.851 382.059C224.509 381.899 224.16 381.754 223.805 381.625L222.83 381.272L221.256 375.5ZM219.5 383.5C225.023 383.5 229.5 387.977 229.5 393.5C229.5 399.023 225.023 403.5 219.5 403.5C213.977 403.5 209.5 399.023 209.5 393.5C209.5 387.977 213.977 383.5 219.5 383.5ZM219.5 385.5C215.082 385.5 211.5 389.082 211.5 393.5C211.5 397.918 215.082 401.5 219.5 401.5C223.918 401.5 227.5 397.918 227.5 393.5C227.5 389.082 223.918 385.5 219.5 385.5Z" fill="#1A1A1A"/>
<rect x="319" y="65" width="97" height="98" rx="48.5" fill="#0048D9"/>
<path fill-rule="evenodd" clip-rule="evenodd" d="M377.693 112.835L380.926 121.204C381.264 122.079 381.943 122.772 382.801 123.117L391 126.417L382.801 129.717C381.943 130.062 381.264 130.755 380.926 131.631L377.693 140L374.46 131.631C374.122 130.755 373.443 130.062 372.586 129.717L364.387 126.417L372.586 123.117C373.443 122.772 374.122 122.079 374.46 121.204L377.693 112.835Z" fill="white"/>
<path fill-rule="evenodd" clip-rule="evenodd" d="M352.221 107.209L354.219 112.38C354.428 112.92 354.847 113.349 355.377 113.562L360.443 115.601L355.377 117.64C354.847 117.853 354.428 118.281 354.219 118.822L352.221 123.993L350.224 118.822C350.015 118.281 349.596 117.853 349.066 117.64L344 115.601L349.066 113.562C349.596 113.349 350.015 112.92 350.224 112.38L352.221 107.209Z" fill="white"/>
<path fill-rule="evenodd" clip-rule="evenodd" d="M369.388 88L371.746 94.1047C371.993 94.7432 372.488 95.2487 373.114 95.5004L379.094 97.9075L373.114 100.314C372.488 100.566 371.993 101.072 371.746 101.71L369.388 107.815L367.03 101.71C366.783 101.072 366.288 100.566 365.663 100.314L359.682 97.9075L365.663 95.5004C366.288 95.2487 366.783 94.7432 367.03 94.1047L369.388 88Z" fill="white"/>
<defs>
<filter id="filter0_d_2182_75439" x="373.357" y="107.339" width="202.587" height="254.733" filterUnits="userSpaceOnUse" color-interpolation-filters="sRGB">
<feFlood flood-opacity="0" result="BackgroundImageFix"/>
<feColorMatrix in="SourceAlpha" type="matrix" values="0 0 0 0 0 0 0 0 0 0 0 0 0 0 0 0 0 0 127 0" result="hardAlpha"/>
<feOffset/>
<feGaussianBlur stdDeviation="0.831232"/>
<feColorMatrix type="matrix" values="0 0 0 0 0.101961 0 0 0 0 0.101961 0 0 0 0 0.101961 0 0 0 0.2 0"/>
<feBlend mode="normal" in2="BackgroundImageFix" result="effect1_dropShadow_2182_75439"/>
<feBlend mode="normal" in="SourceGraphic" in2="effect1_dropShadow_2182_75439" result="shape"/>
</filter>
<filter id="filter1_d_2182_75439" x="34.3571" y="89.3395" width="202.587" height="254.733" filterUnits="userSpaceOnUse" color-interpolation-filters="sRGB">
<feFlood flood-opacity="0" result="BackgroundImageFix"/>
<feColorMatrix in="SourceAlpha" type="matrix" values="0 0 0 0 0 0 0 0 0 0 0 0 0 0 0 0 0 0 127 0" result="hardAlpha"/>
<feOffset/>
<feGaussianBlur stdDeviation="0.831232"/>
<feColorMatrix type="matrix" values="0 0 0 0 0.101961 0 0 0 0 0.101961 0 0 0 0 0.101961 0 0 0 0.2 0"/>
<feBlend mode="normal" in2="BackgroundImageFix" result="effect1_dropShadow_2182_75439"/>
<feBlend mode="normal" in="SourceGraphic" in2="effect1_dropShadow_2182_75439" result="shape"/>
</filter>
<filter id="filter2_d_2182_75439" x="81.3571" y="140.339" width="202.587" height="254.733" filterUnits="userSpaceOnUse" color-interpolation-filters="sRGB">
<feFlood flood-opacity="0" result="BackgroundImageFix"/>
<feColorMatrix in="SourceAlpha" type="matrix" values="0 0 0 0 0 0 0 0 0 0 0 0 0 0 0 0 0 0 127 0" result="hardAlpha"/>
<feOffset/>
<feGaussianBlur stdDeviation="0.831232"/>
<feColorMatrix type="matrix" values="0 0 0 0 0.101961 0 0 0 0 0.101961 0 0 0 0 0.101961 0 0 0 0.2 0"/>
<feBlend mode="normal" in2="BackgroundImageFix" result="effect1_dropShadow_2182_75439"/>
<feBlend mode="normal" in="SourceGraphic" in2="effect1_dropShadow_2182_75439" result="shape"/>
</filter>
<filter id="filter3_d_2182_75439" x="134.357" y="189.339" width="202.587" height="254.733" filterUnits="userSpaceOnUse" color-interpolation-filters="sRGB">
<feFlood flood-opacity="0" result="BackgroundImageFix"/>
<feColorMatrix in="SourceAlpha" type="matrix" values="0 0 0 0 0 0 0 0 0 0 0 0 0 0 0 0 0 0 127 0" result="hardAlpha"/>
<feOffset/>
<feGaussianBlur stdDeviation="0.831232"/>
<feColorMatrix type="matrix" values="0 0 0 0 0.101961 0 0 0 0 0.101961 0 0 0 0 0.101961 0 0 0 0.2 0"/>
<feBlend mode="normal" in2="BackgroundImageFix" result="effect1_dropShadow_2182_75439"/>
<feBlend mode="normal" in="SourceGraphic" in2="effect1_dropShadow_2182_75439" result="shape"/>
</filter>
</defs>
</svg>
