<svg width="555" height="386" viewBox="0 0 555 386" fill="none" xmlns="http://www.w3.org/2000/svg">
<rect x="251.5" y="43.5" width="255" height="222" rx="39.5" stroke="#969696" stroke-dasharray="8 20"/>
<path fill-rule="evenodd" clip-rule="evenodd" d="M25.321 207.209C27.0119 146.759 84.8153 99.507 152.416 68.87C220.476 38.0246 305.686 19.2777 382.251 45.4458C454.723 70.2151 479.935 133.033 504.158 189.087C526.246 240.201 553.459 300.367 509.245 339.327C467.599 376.023 387.085 348.658 320.602 350.829C259.077 352.838 197.863 377.182 144.517 351.236C77.6698 318.722 23.7159 264.587 25.321 207.209Z" fill="#FBFBFB"/>
<path d="M280 81C280 81.5528 279.553 82 279 82C278.447 82 278 81.5528 278 81C278 80.4472 278.447 80 279 80C279.553 80 280 80.4472 280 81Z" fill="#E2E2E2"/>
<path d="M174 252H386V256.203C386 257.196 385.167 258 384.145 258H176.654C175.189 258 174 256.848 174 255.429V252Z" fill="#A8A8A8"/>
<path d="M153.305 76H405.695C408.624 76 411 78.3741 411 81.3V245.168C411 250.595 406.592 255 401.16 255H157.84C152.408 255 148 250.595 148 245.168V81.3C148 78.3741 150.376 76 153.305 76Z" fill="#A8A8A8"/>
<path d="M403 246.258V85.7422C403 85.3323 402.668 85 402.259 85L156.741 85C156.332 85 156 85.3323 156 85.7422V246.258C156 246.668 156.332 247 156.741 247L402.259 247C402.668 247 403 246.668 403 246.258Z" fill="white"/>
<path d="M463.998 316.951V315.566L91 315V316.953C91 321.397 95.3802 325 100.783 325H454.217C459.62 325 464 321.399 464 316.953L463.998 316.951Z" fill="#A8A8A8"/>
<path d="M459.993 317H95.0045C90.9916 317 89.8105 315.096 92.3042 312.805L150.542 259.283C152.141 257.813 154.225 257 156.387 257H398.613C400.775 257 402.859 257.815 404.458 259.283L462.696 312.805C465.19 315.096 464.008 317 459.996 317H459.993Z" fill="white"/>
<g opacity="0.3">
<path d="M176.725 266H160.839C160.158 266 159.822 265.776 160.095 265.502L163.108 262.47C163.365 262.212 164.114 262 164.774 262H180.133C180.793 262 181.154 262.212 180.937 262.47L178.386 265.502C178.156 265.776 177.409 266 176.725 266Z" fill="#D4D4D4"/>
<path d="M196.423 266H180.876C180.209 266 179.844 265.776 180.064 265.502L182.511 262.47C182.72 262.212 183.418 262 184.064 262H199.095C199.741 262 200.13 262.212 199.96 262.47L197.966 265.502C197.786 265.776 197.092 266 196.423 266Z" fill="#D4D4D4"/>
<path d="M216.941 266H200.961C200.276 266 199.862 265.776 200.042 265.502L202.044 262.47C202.214 262.212 202.897 262 203.559 262H219.009C219.673 262 220.108 262.212 219.977 262.47L218.442 265.502C218.304 265.776 217.629 266 216.941 266Z" fill="#D4D4D4"/>
<path d="M257.153 266H241.104C240.415 266 239.923 265.776 240.01 265.502L240.986 262.47C241.07 262.212 241.683 262 242.349 262H257.865C258.533 262 259.042 262.212 258.997 262.47L258.49 265.502C258.443 265.776 257.842 266 257.153 266Z" fill="#D4D4D4"/>
<path d="M236.61 266H221.003C220.334 266 219.892 265.776 220.023 265.502L221.474 262.47C221.598 262.212 222.228 262 222.877 262H237.966C238.615 262 239.075 262.212 238.99 262.47L237.993 265.502C237.904 265.776 237.28 266 236.61 266Z" fill="#D4D4D4"/>
<path d="M296.861 266H281.281C280.613 266 280.06 265.776 280.056 265.502L280 262.47C279.996 262.212 280.522 262 281.167 262H296.23C296.878 262 297.443 262.212 297.486 262.47L297.997 265.502C298.043 265.776 297.534 266 296.865 266H296.861Z" fill="#D4D4D4"/>
<path d="M317.91 266H301.919C301.233 266 300.628 265.776 300.577 265.502L300.003 262.47C299.954 262.212 300.458 262 301.123 262H316.582C317.247 262 317.861 262.212 317.95 262.47L318.988 265.502C319.082 265.776 318.598 266 317.912 266H317.91Z" fill="#D4D4D4"/>
<path d="M337.008 266H321.459C320.792 266 320.166 265.776 320.071 265.502L319.012 262.47C318.921 262.212 319.375 262 320.021 262H335.055C335.701 262 336.333 262.212 336.463 262.47L337.975 265.502C338.111 265.776 337.678 266 337.008 266Z" fill="#D4D4D4"/>
<path d="M358.05 266H342.127C341.444 266 340.765 265.776 340.622 265.502L339.025 262.47C338.89 262.212 339.319 262 339.979 262H355.372C356.034 262 356.717 262.212 356.893 262.47L358.955 265.502C359.141 265.776 358.735 266 358.05 266Z" fill="#D4D4D4"/>
<path d="M394.823 266H362.115C361.159 266 360.157 265.685 359.891 265.3L358.061 262.661C357.809 262.296 358.36 262 359.285 262H390.906C391.83 262 392.881 262.296 393.243 262.661L395.867 265.3C396.249 265.683 395.779 266 394.823 266Z" fill="#D4D4D4"/>
<path d="M276.781 266H261.15C260.48 266 259.963 265.776 260.002 265.502L260.448 262.47C260.486 262.212 261.048 262 261.698 262H276.81C277.46 262 277.992 262.212 277.992 262.47L278 265.502C278 265.776 277.452 266 276.781 266Z" fill="#D4D4D4"/>
<path d="M383.587 272H400.139C400.851 272 401.189 271.718 400.893 271.376L397.624 267.587C397.345 267.263 396.557 267 395.871 267H379.891C379.205 267 378.835 267.263 379.072 267.587L381.84 271.376C382.09 271.718 382.877 272 383.589 272H383.587Z" fill="#D4D4D4"/>
<path d="M362.848 272H379.097C379.796 272 380.167 271.718 379.927 271.376L377.26 267.587C377.032 267.263 376.296 267 375.622 267H359.935C359.261 267 358.86 267.263 359.045 267.587L361.218 271.376C361.415 271.718 362.147 272 362.846 272H362.848Z" fill="#D4D4D4"/>
<path d="M342.283 272H359.005C359.724 272 360.148 271.718 359.952 271.376L357.769 267.587C357.584 267.263 356.865 267 356.171 267H340.027C339.334 267 338.884 267.263 339.026 267.587L340.704 271.376C340.855 271.718 341.568 272 342.285 272H342.283Z" fill="#D4D4D4"/>
<path d="M299.875 272H315.905C316.594 272 317.081 271.718 316.989 271.376L315.97 267.587C315.882 267.263 315.269 267 314.604 267H299.128C298.463 267 297.956 267.263 298.003 267.587L298.537 271.376C298.586 271.718 299.187 272 299.877 272H299.875Z" fill="#D4D4D4"/>
<path d="M320.567 272H336.956C337.66 272 338.116 271.718 337.974 271.376L336.383 267.587C336.247 267.263 335.58 267 334.9 267H319.078C318.398 267 317.919 267.263 318.011 267.587L319.105 271.376C319.203 271.718 319.862 272 320.565 272H320.567Z" fill="#D4D4D4"/>
<path d="M258.198 272H274.65C275.358 272 275.939 271.718 275.943 271.376L276 267.587C276.004 267.263 275.45 267 274.768 267H258.884C258.202 267 257.606 267.263 257.557 267.587L257.003 271.376C256.953 271.718 257.49 272 258.198 272Z" fill="#D4D4D4"/>
<path d="M237.083 272H253.062C253.749 272 254.352 271.718 254.407 271.376L254.996 267.587C255.047 267.263 254.546 267 253.883 267H238.457C237.795 267 237.179 267.263 237.087 267.587L236.013 271.376C235.915 271.718 236.398 272 237.083 272Z" fill="#D4D4D4"/>
<path d="M216.031 272H232.371C233.073 272 233.732 271.718 233.836 271.376L234.987 267.587C235.085 267.263 234.61 267 233.934 267H218.16C217.482 267 216.813 267.263 216.673 267.587L215.028 271.376C214.88 271.718 215.33 272 216.033 272H216.031Z" fill="#D4D4D4"/>
<path d="M194.987 272H211.654C212.371 272 213.083 271.718 213.241 271.376L214.972 267.587C215.119 267.263 214.674 267 213.983 267H197.892C197.201 267 196.48 267.263 196.288 267.587L194.051 271.376C193.849 271.718 194.268 272 194.984 272H194.987Z" fill="#D4D4D4"/>
<path d="M156.191 272H189.695C190.675 272 191.709 271.604 191.991 271.126L193.933 267.825C194.2 267.371 193.645 267 192.698 267H160.352C159.405 267 158.319 267.371 157.934 267.825L155.146 271.126C154.74 271.606 155.209 272 156.189 272H156.191Z" fill="#D4D4D4"/>
<path d="M279.289 272H295.791C296.501 272 297.042 271.718 296.997 271.376L296.501 267.587C296.458 267.263 295.865 267 295.18 267H279.249C278.564 267 278.004 267.263 278.004 267.587L278 271.376C278 271.718 278.579 272 279.289 272Z" fill="#D4D4D4"/>
<path d="M367.017 277H404.837C405.813 277 406.264 276.648 405.842 276.218L403.402 273.742C402.999 273.332 401.896 273 400.95 273H364.295C363.348 273 362.797 273.334 363.07 273.742L364.721 276.218C365.006 276.646 366.042 277 367.017 277Z" fill="#D4D4D4"/>
<path d="M344.515 277H361.974C362.723 277 363.159 276.719 362.946 276.375L360.572 272.586C360.369 272.264 359.615 272 358.891 272H342.062C341.34 272 340.874 272.262 341.03 272.586L342.852 276.375C343.017 276.719 343.767 277 344.517 277H344.515Z" fill="#D4D4D4"/>
<path d="M387.912 277H405.12C405.859 277 406.2 276.719 405.88 276.375L402.34 272.586C402.039 272.264 401.209 272 400.498 272H383.912C383.2 272 382.825 272.262 383.08 272.586L386.076 276.375C386.348 276.719 387.175 277 387.914 277H387.912Z" fill="#D4D4D4"/>
<path d="M300.998 277H317.855C318.579 277 319.088 276.719 318.987 276.375L317.871 272.586C317.776 272.264 317.129 272 316.429 272H300.181C299.484 272 298.954 272.262 299.003 272.586L299.587 276.375C299.641 276.719 300.276 277 301 277H300.998Z" fill="#D4D4D4"/>
<path d="M322.743 277H339.915C340.652 277 341.127 276.719 340.97 276.375L339.234 272.586C339.087 272.264 338.385 272 337.673 272H321.121C320.411 272 319.91 272.262 320.013 272.586L321.207 276.375C321.314 276.719 322.008 277 322.745 277H322.743Z" fill="#D4D4D4"/>
<path d="M347.758 283H365.944C366.725 283 367.171 282.718 366.938 282.375L364.361 278.585C364.141 278.262 363.349 278 362.597 278H345.095C344.343 278 343.865 278.262 344.034 278.585L346.013 282.375C346.192 282.718 346.978 283 347.76 283H347.758Z" fill="#D4D4D4"/>
<path d="M393.258 283H411.103C411.87 283 412.211 282.718 411.864 282.375L408.036 278.585C407.71 278.262 406.843 278 406.105 278H388.931C388.193 278 387.814 278.262 388.09 278.585L391.331 282.375C391.623 282.718 392.493 283 393.258 283Z" fill="#D4D4D4"/>
<path d="M368.086 280H386.383C386.87 280 387.121 279.83 386.942 279.625L385.845 278.366C385.67 278.164 385.134 278 384.653 278H366.649C366.169 278 365.895 278.164 366.038 278.366L366.934 279.625C367.08 279.83 367.599 280 368.086 280Z" fill="#D4D4D4"/>
<path d="M370.214 283H389.359C389.87 283 390.129 282.83 389.936 282.625L388.761 281.365C388.574 281.164 388.01 281 387.508 281H368.676C368.173 281 367.888 281.164 368.041 281.365L368.999 282.625C369.156 282.83 369.701 283 370.212 283H370.214Z" fill="#D4D4D4"/>
<path d="M324.931 283H342.876C343.648 283 344.138 282.718 343.965 282.375L342.073 278.585C341.911 278.262 341.174 278 340.434 278H323.163C322.421 278 321.904 278.262 322.015 278.585L323.316 282.375C323.434 282.718 324.162 283 324.933 283H324.931Z" fill="#D4D4D4"/>
<path d="M257.254 277H274.576C275.32 277 275.932 276.719 275.938 276.375L276 272.586C276.004 272.264 275.423 272 274.705 272H258.009C257.292 272 256.663 272.262 256.612 272.586L256.004 276.375C255.949 276.719 256.512 277 257.256 277H257.254Z" fill="#D4D4D4"/>
<path d="M235.131 277H251.932C252.653 277 253.291 276.719 253.35 276.375L253.996 272.586C254.051 272.264 253.527 272 252.83 272H236.636C235.941 272 235.289 272.262 235.19 272.586L234.014 276.375C233.907 276.719 234.411 277 235.133 277H235.131Z" fill="#D4D4D4"/>
<path d="M215.569 283H318.233C319.991 283 321.221 282.352 320.967 281.568L320.25 279.355C320.008 278.607 318.427 278 316.732 278H217.922C216.227 278 214.544 278.607 214.173 279.355L213.077 281.568C212.689 282.352 213.808 283 215.567 283H215.569Z" fill="#D4D4D4"/>
<path d="M214.071 277H231.187C231.922 277 232.618 276.719 232.731 276.375L233.985 272.586C234.092 272.264 233.6 272 232.89 272H216.391C215.684 272 214.978 272.262 214.827 272.586L213.032 276.375C212.871 276.719 213.338 277 214.073 277H214.071Z" fill="#D4D4D4"/>
<path d="M192.011 277H209.416C210.163 277 210.915 276.719 211.086 276.375L212.968 272.586C213.128 272.264 212.67 272 211.948 272H195.172C194.452 272 193.694 272.262 193.487 272.586L191.057 276.375C190.838 276.719 191.268 277 192.016 277H192.011Z" fill="#D4D4D4"/>
<path d="M190.055 283H208.24C209.022 283 209.808 282.718 209.987 282.375L211.966 278.585C212.135 278.262 211.657 278 210.905 278H193.404C192.652 278 191.86 278.262 191.64 278.585L189.062 282.375C188.828 282.718 189.275 283 190.057 283H190.055Z" fill="#D4D4D4"/>
<path d="M167.951 283H185.582C186.34 283 187.15 282.718 187.381 282.375L189.943 278.585C190.16 278.262 189.742 278 189.013 278H172.045C171.316 278 170.502 278.262 170.236 278.585L167.094 282.375C166.809 282.718 167.195 283 167.953 283H167.951Z" fill="#D4D4D4"/>
<path d="M144.897 283H162.742C163.509 283 164.377 282.718 164.669 282.375L167.91 278.585C168.186 278.262 167.807 278 167.069 278H149.895C149.157 278 148.29 278.262 147.963 278.585L144.136 282.375C143.788 282.718 144.131 283 144.897 283Z" fill="#D4D4D4"/>
<path d="M151.225 277H186.369C187.396 277 188.491 276.605 188.802 276.124L190.924 272.824C191.216 272.369 190.642 272 189.652 272H155.774C154.784 272 153.631 272.369 153.212 272.824L150.166 276.124C149.722 276.605 150.199 277 151.227 277H151.225Z" fill="#D4D4D4"/>
<path d="M279.354 277H296.73C297.476 277 298.046 276.719 297.997 276.375L297.453 272.586C297.406 272.264 296.781 272 296.06 272H279.312C278.593 272 278.004 272.262 278.004 272.586L278 276.375C278 276.719 278.61 277 279.357 277H279.354Z" fill="#D4D4D4"/>
</g>
<path opacity="0.3" d="M346.379 312H197.376C191.945 312 188.835 309.488 190.409 306.518L198.511 291.232C199.76 288.873 204.539 287 209.163 287H336.099C340.724 287 345.39 288.875 346.498 291.232L353.678 306.518C355.073 309.488 351.81 312 346.379 312Z" fill="#D4D4D4"/>
<path d="M221 202.849V59.3441C221 55.2871 224.282 52 228.33 52H314.257L348.999 86.8024V202.849C348.999 206.906 345.717 210.193 341.67 210.193H228.33C224.284 210.193 221 206.908 221 202.849Z" fill="white" stroke="#1D1D1D" stroke-width="2"/>
<line x1="249.6" y1="114.4" x2="322.4" y2="114.4" stroke="black" stroke-width="1.2" stroke-linecap="round"/>
<line x1="249.6" y1="124.4" x2="282.4" y2="124.4" stroke="black" stroke-width="1.2" stroke-linecap="round"/>
<line x1="289.6" y1="124.4" x2="322.4" y2="124.4" stroke="black" stroke-width="1.2" stroke-linecap="round"/>
<line x1="249.6" y1="134.4" x2="269.067" y2="134.4" stroke="black" stroke-width="1.2" stroke-linecap="round"/>
<line x1="276.267" y1="134.4" x2="295.733" y2="134.4" stroke="black" stroke-width="1.2" stroke-linecap="round"/>
<line x1="302.933" y1="134.4" x2="322.4" y2="134.4" stroke="black" stroke-width="1.2" stroke-linecap="round"/>
<line x1="249.6" y1="144.4" x2="300.4" y2="144.4" stroke="black" stroke-width="1.2" stroke-linecap="round"/>
<line x1="307.6" y1="144.4" x2="322.4" y2="144.4" stroke="black" stroke-width="1.2" stroke-linecap="round"/>
<line x1="249.6" y1="154.4" x2="264.4" y2="154.4" stroke="black" stroke-width="1.2" stroke-linecap="round"/>
<line x1="271.6" y1="154.4" x2="322.4" y2="154.4" stroke="black" stroke-width="1.2" stroke-linecap="round"/>
<rect x="204" y="73" width="74" height="34" rx="6" fill="#D2294B"/>
<path d="M221 97.5V82.5H227.728C229.371 82.5 230.639 82.9255 231.53 83.7766C232.422 84.6135 232.867 85.7837 232.867 87.2872C232.867 88.7908 232.422 89.9681 231.53 90.8191C230.639 91.6702 229.371 92.0957 227.728 92.0957H224.238V97.5H221ZM224.238 89.5426H227.184C228.898 89.5426 229.754 88.7908 229.754 87.2872C229.754 85.8121 228.898 85.0745 227.184 85.0745H224.238V89.5426Z" fill="white"/>
<path d="M234.875 97.5V82.5H240.641C243.148 82.5 245.091 83.1525 246.47 84.4574C247.849 85.7482 248.539 87.5922 248.539 89.9894C248.539 92.3865 247.849 94.2376 246.47 95.5426C245.091 96.8475 243.148 97.5 240.641 97.5H234.875ZM238.113 94.7979H240.453C243.587 94.7979 245.154 93.195 245.154 89.9894C245.154 86.7979 243.587 85.2021 240.453 85.2021H238.113V94.7979Z" fill="white"/>
<path d="M251.055 97.5V82.5H261V85.0745H254.293V88.734H260.54V91.3085H254.293V97.5H251.055Z" fill="white"/>
<path d="M315.774 78.1949V53.4142L347.586 85.2258H322.805C318.923 85.2258 315.774 82.0789 315.774 78.1949Z" fill="white" stroke="#1D1D1D" stroke-width="2"/>
<circle cx="334.75" cy="196.75" r="28.75" fill="#D2294B"/>
<path d="M323.286 191.893C321.738 190.345 321.738 187.835 323.286 186.286C324.835 184.738 327.345 184.738 328.893 186.286L345.714 203.107C347.262 204.655 347.262 207.165 345.714 208.714C344.165 210.262 341.655 210.262 340.107 208.714L323.286 191.893Z" stroke="white" stroke-width="1.5"/>
<path d="M326.25 194.75L331.75 189.25" stroke="white" stroke-width="1.5" stroke-linecap="round"/>
<path d="M340.138 184.172C340.359 183.609 341.153 183.609 341.374 184.172L341.966 185.678C342.034 185.85 342.169 185.986 342.34 186.054L343.841 186.648C344.402 186.87 344.402 187.667 343.841 187.889L342.34 188.483C342.169 188.551 342.034 188.687 341.966 188.859L341.374 190.365C341.153 190.929 340.359 190.929 340.138 190.365L339.546 188.859C339.478 188.687 339.343 188.551 339.171 188.483L337.671 187.889C337.11 187.667 337.11 186.87 337.671 186.648L339.171 186.054C339.343 185.986 339.478 185.85 339.546 185.678L340.138 184.172Z" stroke="white"/>
<path d="M345.455 193.553C345.676 192.99 346.47 192.99 346.691 193.553L346.907 194.102C346.975 194.274 347.11 194.41 347.282 194.478L347.829 194.695C348.39 194.917 348.39 195.714 347.829 195.936L347.282 196.152C347.11 196.22 346.975 196.356 346.907 196.528L346.691 197.077C346.47 197.64 345.676 197.64 345.455 197.077L345.239 196.528C345.171 196.356 345.036 196.22 344.864 196.152L344.317 195.936C343.756 195.714 343.756 194.917 344.317 194.695L344.864 194.478C345.036 194.41 345.171 194.274 345.239 194.102L345.455 193.553Z" stroke="white"/>
<path d="M325.058 202.047C325.279 201.484 326.074 201.484 326.295 202.047L326.511 202.596C326.578 202.768 326.714 202.905 326.885 202.972L327.432 203.189C327.993 203.411 327.993 204.208 327.432 204.43L326.885 204.647C326.714 204.715 326.578 204.851 326.511 205.023L326.295 205.572C326.074 206.135 325.279 206.135 325.058 205.572L324.842 205.023C324.775 204.851 324.639 204.715 324.468 204.647L323.921 204.43C323.36 204.208 323.36 203.411 323.921 203.189L324.468 202.972C324.639 202.905 324.775 202.768 324.842 202.596L325.058 202.047Z" stroke="white"/>
<g clip-path="url(#clip0_6868_78130)">
<path d="M54.2394 279.593L44.1635 279.593C42.9544 294.694 48.6983 298.98 53.2318 298.98L64.3154 300L75.9018 299.49C78.0848 299.32 83.0554 298.47 85.4736 296.429C87.8917 294.388 88.8321 285.375 89 281.123L88.4967 279.594C82.8544 277.961 77.9169 280.103 76.4056 281.123L70.3603 287.245C68.1772 287.415 63.4081 287.653 61.7961 287.245C60.184 286.837 57.2622 282.144 54.2394 279.593Z" fill="#1D1D1D"/>
<path d="M67 255L67 273M67 273L74 266.25M67 273L60 266.25" stroke="#1D1D1D" stroke-width="1.18987" stroke-linecap="round" stroke-linejoin="round"/>
<path d="M44 280H51.1106C53.1472 280 54.1655 280 55.0606 280.418C55.9558 280.836 56.6185 281.622 57.9439 283.193L59.3061 284.807C60.6315 286.378 61.2942 287.164 62.1894 287.582C63.0845 288 64.1028 288 66.1394 288H66.8606C68.8972 288 69.9155 288 70.8106 287.582C71.7058 287.164 72.3685 286.378 73.6939 284.807L75.0561 283.193C76.3815 281.622 77.0442 280.836 77.9394 280.418C78.8345 280 79.8528 280 81.8894 280H89" stroke="#1D1D1D" stroke-width="1.18987" stroke-linecap="round"/>
<path d="M77.75 255C81.4066 255.362 83.8679 256.18 85.705 258.029C89 261.345 89 266.682 89 277.356C89 288.031 89 293.368 85.705 296.684C82.4099 300 77.1066 300 66.5 300C55.8934 300 50.5901 300 47.295 296.684C44 293.368 44 288.031 44 277.356C44 266.682 44 261.345 47.295 258.029C49.1321 256.18 51.5934 255.362 55.25 255" stroke="#1D1D1D" stroke-width="1.18987" stroke-linecap="round"/>
</g>
<rect x="44" y="51" width="64" height="64" rx="12" fill="#3E4FE0"/>
<path d="M81.9079 98.15H64.1848C63.0525 98.15 62.0679 97.2 62.0679 96V86C62.0679 84.85 63.0033 83.85 64.1848 83.85H65.0709V78C65.0709 76.85 66.0063 75.85 67.1879 75.85H68.074V70C68.074 68.85 69.0094 67.85 70.1909 67.85H87.914C89.0463 67.85 90.0309 68.8 90.0309 70V80C90.0309 81.15 89.0956 82.15 87.914 82.15H87.0279V88C87.0279 89.15 86.0925 90.15 84.9109 90.15H84.0248V96C84.0248 97.15 83.0402 98.15 81.9079 98.15ZM64.3325 95.9H81.8094V86.15H64.3325V95.9ZM84.0248 87.9H84.7633V78.15H67.2863V83.9H81.9571C83.0894 83.9 84.074 84.85 84.074 86.05V87.9H84.0248ZM86.9786 79.9H87.7171V70.15H70.2402V75.9H84.9109C86.0433 75.9 87.0279 76.85 87.0279 78.05V79.9H86.9786Z" fill="white"/>
<path d="M491.499 42.166H481.916" stroke="#272525" stroke-width="1.5" stroke-linecap="round"/>
<path d="M476.166 28.75H488.624C489.514 28.75 489.96 28.75 490.333 28.7992C492.913 29.1389 494.944 31.1693 495.283 33.7495C495.333 34.1231 495.333 34.5682 495.333 35.4583" stroke="#272525" stroke-width="1.5"/>
<path d="M460.834 36.321C460.834 34.6295 460.834 33.7837 460.967 33.0792C461.552 29.9779 463.978 27.552 467.079 26.9669C467.784 26.834 468.629 26.834 470.321 26.834C471.062 26.834 471.433 26.834 471.789 26.8673C473.324 27.0109 474.781 27.6141 475.968 28.5983C476.243 28.8266 476.505 29.0886 477.029 29.6127L478.084 30.6673C479.648 32.2309 480.429 33.0127 481.366 33.5335C481.88 33.8197 482.425 34.0456 482.991 34.207C484.022 34.5007 485.127 34.5007 487.338 34.5007H488.055C493.1 34.5007 495.623 34.5007 497.262 35.9755C497.413 36.1111 497.557 36.2547 497.693 36.4055C499.167 38.0452 499.167 40.5679 499.167 45.6133V49.834C499.167 57.0622 499.167 60.6763 496.922 62.9218C494.676 65.1673 491.062 65.1673 483.834 65.1673H476.167C468.939 65.1673 465.325 65.1673 463.079 62.9218C460.834 60.6763 460.834 57.0622 460.834 49.834V36.321Z" fill="white" stroke="#272525" stroke-width="1.5"/>
<rect x="480" y="209" width="50" height="50" rx="12" fill="#5F30E2"/>
<path d="M503.375 236.437H495.714M503.375 236.437V244.098M503.375 236.437L494.437 245.375" stroke="white" stroke-width="1.8" stroke-linecap="round" stroke-linejoin="round"/>
<path d="M508.25 231.562H515.911M508.25 231.562V223.902M508.25 231.562L517.188 222.625" stroke="white" stroke-width="1.8" stroke-linecap="round" stroke-linejoin="round"/>
<defs>
<clipPath id="clip0_6868_78130">
<rect x="43" y="253" width="47" height="47" fill="white"/>
</clipPath>
</defs>
</svg>
